<svg width="25" height="24" viewBox="0 0 25 24" fill="none" xmlns="http://www.w3.org/2000/svg">
    <path d="M9.90017 16H3.5C2.39543 16 1.5 15.1046 1.5 14V11.8957C1.5 11.6344 1.55118 11.3757 1.65064 11.1342L4.74501 3.61925C4.8993 3.24455 5.26447 3 5.66969 3H22.5C23.0523 3 23.5 3.44772 23.5 4V14C23.5 14.5523 23.0523 15 22.5 15H19.0182C18.6932 15 18.3886 15.1579 18.2012 15.4233L12.7478 23.149C12.6053 23.3508 12.3367 23.4184 12.1157 23.3078L10.3016 22.4008C9.24998 21.875 8.70687 20.6874 8.99694 19.548L9.90017 16ZM17.5 13.4125V5H6.33939L3.5 11.8957V14H9.90017C11.2049 14 12.1602 15.229 11.8384 16.4934L10.9351 20.0414C10.8771 20.2693 10.9857 20.5068 11.1961 20.612L11.8572 20.9425L16.5673 14.27C16.8172 13.9159 17.1366 13.6257 17.5 13.4125ZM19.5 13H21.5V5H19.5V13Z" fill="currentColor"/>
</svg>
