<svg width="41" height="41" viewBox="0 0 41 41" fill="none" xmlns="http://www.w3.org/2000/svg">
    <path d="M11.8543 23.9727C11.4581 25.0378 11.1218 26.0232 10.8209 27.0181C12.4596 25.8281 14.4105 25.0727 16.6595 24.7915C20.9531 24.2549 24.7667 21.4199 26.6977 17.8584L24.2107 15.3731L26.624 12.9563C27.1941 12.3855 27.764 11.8151 28.3341 11.2451C29.0675 10.5116 29.8958 9.15409 30.772 7.20045C21.217 8.68144 15.3662 14.5319 11.8543 23.9727ZM29.0417 15.3705L30.75 17.0777C29.0417 22.2027 23.9167 27.3277 17.0833 28.1819C12.5246 28.7518 9.67636 31.8836 8.53866 37.5777H5.125C6.83333 27.3277 10.25 3.41101 35.875 3.41101C34.1682 8.53145 32.4614 11.9466 30.7546 13.6564C30.1798 14.2313 29.6107 14.8007 29.0417 15.3705Z" fill="currentColor"/>
</svg>
